<?xml version="1.0" encoding="utf-8"?><svg viewBox="0 0 512 512" xmlns="http://www.w3.org/2000/svg" xmlns:xlink="http://www.w3.org/1999/xlink"><style>:root>svg{display:none}:root>svg:target{display:block}</style><svg fill="none" viewBox="0 0 17 16" id="Vector" xmlns="http://www.w3.org/2000/svg">
    <path d="M7.684.519c.29-.692 1.282-.692 1.574 0L10.976 4.6c.123.291.4.49.719.516l4.46.353c.756.06 1.063.991.487 1.479l-3.398 2.876a.836.836 0 0 0-.275.835l1.038 4.3c.176.728-.626 1.304-1.273.914l-3.82-2.305a.861.861 0 0 0-.888 0l-3.819 2.305c-.647.39-1.449-.186-1.273-.914l1.038-4.3a.836.836 0 0 0-.274-.835L.299 6.949c-.576-.488-.27-1.42.486-1.48l4.461-.352a.852.852 0 0 0 .719-.516L7.684.519Z" fill="#F9B811"/>
</svg><svg fill="none" viewBox="0 0 48 48" id="backward" xmlns="http://www.w3.org/2000/svg">
    <rect x=".5" y=".5" width="47" height="47" rx="23.5" stroke="#B9B9B9"/>
    <path d="M32 23H19.83l5.59-5.59L24 16l-8 8 8 8 1.41-1.41L19.83 25H32v-2Z" fill="#B9B9B9"/>
</svg><svg fill="none" viewBox="0 0 24 24" id="calendar" xmlns="http://www.w3.org/2000/svg">
    <path d="M16.75 3.56V2c0-.41-.34-.75-.75-.75s-.75.34-.75.75v1.5h-6.5V2c0-.41-.34-.75-.75-.75s-.75.34-.75.75v1.56c-2.7.25-4.01 1.86-4.21 4.25-.02.29.22.53.5.53h16.92c.29 0 .53-.25.5-.53-.2-2.39-1.51-4-4.21-4.25ZM20 9.84H4c-.55 0-1 .45-1 1V17c0 3 1.5 5 5 5h8c3.5 0 5-2 5-5v-6.16c0-.55-.45-1-1-1ZM9.21 18.21c-.1.09-.21.16-.33.21-.12.05-.25.08-.38.08s-.26-.03-.38-.08-.23-.12-.33-.21c-.18-.19-.29-.45-.29-.71 0-.26.11-.52.29-.71.1-.09.21-.16.33-.21a1 1 0 0 1 .76 0c.12.05.23.12.33.21.18.19.29.45.29.71 0 .26-.11.52-.29.71Zm.21-3.83c-.05.12-.12.23-.21.33-.1.09-.21.16-.33.21-.12.05-.25.08-.38.08s-.26-.03-.38-.08-.23-.12-.33-.21c-.09-.1-.16-.21-.21-.33A.995.995 0 0 1 7.5 14c0-.13.03-.26.08-.38s.12-.23.21-.33c.1-.09.21-.16.33-.21a1 1 0 0 1 .76 0c.12.05.23.12.33.21.09.1.16.21.21.33.05.12.08.25.08.38s-.03.26-.08.38Zm3.29.33c-.1.09-.21.16-.33.21-.12.05-.25.08-.38.08s-.26-.03-.38-.08-.23-.12-.33-.21c-.18-.19-.29-.45-.29-.71 0-.26.11-.52.29-.71.1-.09.21-.16.33-.21.24-.11.52-.11.76 0 .12.05.23.12.33.21.18.19.29.45.29.71 0 .26-.11.52-.29.71Z" fill="#35AFF4"/>
</svg><svg fill="none" viewBox="0 0 48 48" id="forward" xmlns="http://www.w3.org/2000/svg">
    <rect width="48" height="48" rx="24" fill="#35AFF4"/>
    <path d="m24 16-1.41 1.41L28.17 23H16v2h12.17l-5.58 5.59L24 32l8-8-8-8Z" fill="#fff"/>
</svg><svg fill="none" viewBox="0 0 24 25" id="heart" xmlns="http://www.w3.org/2000/svg">
    <path fill-rule="evenodd" clip-rule="evenodd" d="M12.692 7.584a1 1 0 0 1-1.384 0l-.693-.665A4.5 4.5 0 0 0 3 10.166c0 2.383 1.29 4.35 3.152 5.967 1.863 1.618 4.091 2.691 5.423 3.239.278.114.572.114.85 0 1.332-.548 3.56-1.62 5.423-3.239C19.71 14.517 21 12.55 21 10.167a4.5 4.5 0 0 0-7.615-3.248l-.693.665ZM12 5.476a6.5 6.5 0 0 0-11 4.69c0 6.369 6.97 9.886 9.814 11.055a3.096 3.096 0 0 0 2.372 0C16.03 20.051 23 16.535 23 10.167a6.5 6.5 0 0 0-11-4.69Z" fill="#141718"/>
</svg><svg fill="none" viewBox="0 0 24 24" id="heart-line" xmlns="http://www.w3.org/2000/svg">
    <path d="M12.001 4.529a5.998 5.998 0 0 1 8.242.228 6 6 0 0 1 .236 8.236l-8.48 8.492-8.478-8.492a6 6 0 0 1 8.48-8.464Zm6.826 1.641a3.998 3.998 0 0 0-5.49-.153l-1.335 1.198-1.336-1.197a4 4 0 0 0-5.686 5.605L12 18.654l7.02-7.03a4 4 0 0 0-.193-5.454Z" fill="#000"/>
</svg><svg fill="none" viewBox="0 0 24 24" id="id-card-line" xmlns="http://www.w3.org/2000/svg">
    <path d="M3 6h18v12H3V6ZM2 4a1 1 0 0 0-1 1v14a1 1 0 0 0 1 1h20a1 1 0 0 0 1-1V5a1 1 0 0 0-1-1H2Zm11 4h6v2h-6V8Zm5 4h-5v2h5v-2Zm-7.5-2a2.5 2.5 0 1 1-5 0 2.5 2.5 0 0 1 5 0ZM8 13.5A3.5 3.5 0 0 0 4.5 17h7A3.5 3.5 0 0 0 8 13.5Z" fill="#000"/>
</svg><svg fill="none" viewBox="0 0 122 24" id="logo" xmlns="http://www.w3.org/2000/svg">
    <path fill-rule="evenodd" clip-rule="evenodd" d="M15.333 7.011A6 6 0 0 0 12 6V0A12 12 0 1 1 0 12h6a6 6 0 1 0 9.333-4.989Z" fill="#35AFF4"/>
    <path fill-rule="evenodd" clip-rule="evenodd" d="M6 0a6 6 0 0 1-6 6v6A12.001 12.001 0 0 0 12 0H6Z" fill="#35AFF4"/>
    <path d="M75.371 8.671h-2.91v9.248h2.91V8.67ZM72.784 6.94c.304.304.685.457 1.141.457.457 0 .831-.153 1.123-.457.292-.317.438-.698.438-1.142 0-.456-.146-.837-.438-1.141-.292-.305-.666-.457-1.123-.457-.456 0-.837.152-1.14.457-.293.304-.439.685-.439 1.141 0 .444.146.825.438 1.142ZM30.694 17.919V4.485h2.987v10.808h5.956v2.626h-8.943Z" fill="#35AFF4"/>
    <path fill-rule="evenodd" clip-rule="evenodd" d="M45.016 18.128c-.951 0-1.813-.21-2.587-.628a4.886 4.886 0 0 1-1.808-1.75c-.444-.736-.666-1.56-.666-2.474 0-.913.222-1.731.666-2.454a4.788 4.788 0 0 1 1.808-1.713c.76-.431 1.623-.647 2.587-.647.965 0 1.827.21 2.588.628a4.742 4.742 0 0 1 1.808 1.732c.444.723.666 1.54.666 2.454 0 .914-.222 1.738-.666 2.474a4.886 4.886 0 0 1-1.808 1.75c-.761.419-1.623.628-2.588.628Zm0-2.645a2.22 2.22 0 0 0 1.104-.266c.317-.19.558-.45.723-.78.178-.343.266-.73.266-1.16 0-.432-.088-.806-.266-1.123a1.865 1.865 0 0 0-.742-.762c-.304-.19-.666-.285-1.085-.285-.405 0-.767.095-1.084.285a1.866 1.866 0 0 0-.742.761c-.178.33-.267.71-.267 1.142 0 .419.09.8.267 1.142.177.33.425.59.742.78.317.178.678.266 1.084.266ZM52.383 21.534c.774.355 1.669.533 2.683.533.99 0 1.871-.197 2.645-.59a4.57 4.57 0 0 0 1.827-1.636c.444-.698.666-1.523.666-2.474V8.671H57.35v.622a3.073 3.073 0 0 0-.723-.45c-.495-.241-1.06-.362-1.694-.362-.85 0-1.605.203-2.264.61-.66.392-1.18.938-1.56 1.635-.381.685-.571 1.46-.571 2.322 0 .85.19 1.623.57 2.321.381.698.901 1.25 1.56 1.656.66.405 1.415.609 2.265.609.622 0 1.186-.121 1.694-.362.245-.117.467-.254.666-.413v.584c0 .647-.21 1.148-.628 1.503-.406.356-.97.533-1.694.533-.583 0-1.084-.101-1.503-.304a3.47 3.47 0 0 1-1.104-.895l-1.788 1.789c.444.634 1.046 1.123 1.807 1.465Zm4.148-6.755c-.291.178-.64.267-1.046.267s-.761-.09-1.066-.267a1.876 1.876 0 0 1-.684-.723 2.154 2.154 0 0 1-.248-1.008c0-.38.082-.723.247-1.028.165-.304.4-.545.704-.723a2.039 2.039 0 0 1 1.047-.266c.406 0 .755.089 1.047.266.304.178.532.419.685.723.164.305.247.647.247 1.028 0 .38-.083.723-.247 1.027a1.74 1.74 0 0 1-.685.704ZM66.33 18.128c-.951 0-1.814-.21-2.587-.628a4.885 4.885 0 0 1-1.808-1.75c-.444-.736-.666-1.56-.666-2.474 0-.913.222-1.731.666-2.454a4.786 4.786 0 0 1 1.808-1.713c.76-.431 1.623-.647 2.588-.647.963 0 1.826.21 2.587.628a4.741 4.741 0 0 1 1.808 1.732c.444.723.666 1.54.666 2.454 0 .914-.222 1.738-.666 2.474a4.885 4.885 0 0 1-1.808 1.75c-.761.419-1.624.628-2.587.628Zm0-2.645c.419 0 .787-.088 1.104-.266.317-.19.558-.45.723-.78.178-.343.266-.73.266-1.16 0-.432-.088-.806-.266-1.123a1.864 1.864 0 0 0-.742-.762c-.304-.19-.666-.285-1.084-.285-.407 0-.768.095-1.085.285a1.864 1.864 0 0 0-.742.761c-.178.33-.267.71-.267 1.142 0 .419.089.8.267 1.142.177.33.424.59.742.78a2.18 2.18 0 0 0 1.085.266ZM82.369 18.11c-.621 0-1.192-.121-1.713-.362a3.633 3.633 0 0 1-.741-.455v4.527H77.04V8.67h2.912v.639a3.6 3.6 0 0 1 .703-.448 3.854 3.854 0 0 1 1.713-.38c.875 0 1.65.209 2.321.627.685.419 1.218.99 1.599 1.713.393.723.59 1.547.59 2.473 0 .926-.197 1.75-.59 2.474a4.33 4.33 0 0 1-1.599 1.712c-.672.419-1.446.628-2.321.628Zm-.532-2.627c.418 0 .78-.095 1.084-.285.317-.19.564-.45.742-.78a2.33 2.33 0 0 0 .266-1.123c0-.431-.088-.812-.266-1.142a1.864 1.864 0 0 0-.742-.76 1.967 1.967 0 0 0-1.066-.286c-.406 0-.767.095-1.084.285a1.9 1.9 0 0 0-.723.761c-.178.33-.267.71-.267 1.142 0 .419.083.793.248 1.123.177.33.425.59.742.78.317.19.672.285 1.066.285Z" fill="#35AFF4"/>
    <path d="M89.728 17.938c.532.14 1.071.21 1.617.21 1.154 0 2.067-.267 2.74-.8.684-.533 1.027-1.25 1.027-2.15 0-.584-.107-1.053-.323-1.408a2.518 2.518 0 0 0-.837-.875 4.998 4.998 0 0 0-1.085-.514c-.38-.127-.742-.235-1.084-.324a3.929 3.929 0 0 1-.838-.304c-.215-.114-.323-.266-.323-.457a.43.43 0 0 1 .247-.4c.165-.1.412-.152.742-.152.343 0 .691.07 1.046.21.368.14.698.38.99.723l1.655-1.674a3.821 3.821 0 0 0-1.636-1.2 5.51 5.51 0 0 0-2.169-.418c-.748 0-1.402.127-1.96.38-.558.254-.99.603-1.294 1.047-.304.431-.456.945-.456 1.541 0 .559.108 1.022.323 1.39.215.355.495.634.837.837a4.86 4.86 0 0 0 1.085.475c.38.115.742.222 1.085.324.342.089.621.196.837.323.228.114.342.286.342.514 0 .178-.095.317-.285.419-.178.101-.438.152-.78.152-.495 0-.952-.089-1.37-.267-.419-.19-.78-.45-1.085-.78l-1.655 1.675c.317.342.697.647 1.141.913.457.254.945.45 1.466.59ZM100.421 18.128c-.85 0-1.605-.171-2.264-.514a3.973 3.973 0 0 1-1.522-1.446c-.369-.621-.552-1.332-.552-2.13V8.67h2.911V14c0 .317.05.59.152.818.114.229.28.406.495.533.216.127.476.19.78.19.431 0 .774-.133 1.028-.4.253-.278.38-.659.38-1.14V8.67h2.911v5.347c0 .812-.183 1.529-.552 2.15a3.977 3.977 0 0 1-1.522 1.446c-.647.343-1.395.514-2.245.514ZM109.099 8.671h-2.911v9.248h2.911v-5.404c0-.317.063-.584.19-.8.14-.215.324-.38.552-.494.228-.127.488-.19.78-.19.419 0 .767.133 1.046.4.292.253.438.615.438 1.084v5.404h2.911v-5.404c0-.317.064-.584.191-.8.139-.215.323-.38.552-.494.228-.127.488-.19.78-.19.418 0 .767.133 1.046.4.292.253.437.615.437 1.084v5.404h2.912v-5.727c0-.774-.165-1.434-.495-1.98a3.174 3.174 0 0 0-1.312-1.274c-.546-.305-1.174-.457-1.884-.457-.723 0-1.377.159-1.96.476a3.545 3.545 0 0 0-.994.782 3.25 3.25 0 0 0-.966-.82c-.507-.292-1.085-.438-1.731-.438-.686 0-1.301.146-1.846.438a3.163 3.163 0 0 0-.647.436v-.684Z" fill="#35AFF4"/>
</svg><svg fill="none" viewBox="0 0 20 17" id="mail" xmlns="http://www.w3.org/2000/svg">
    <path d="M15 0H5C2 0 0 1.5 0 5v7c0 3.5 2 5 5 5h10c3 0 5-1.5 5-5V5c0-3.5-2-5-5-5Zm.47 6.09-3.13 2.5c-.66.53-1.5.79-2.34.79-.84 0-1.69-.26-2.34-.79l-3.13-2.5a.77.77 0 0 1-.12-1.06c.26-.32.73-.38 1.05-.12l3.13 2.5c.76.61 2.05.61 2.81 0l3.13-2.5c.32-.26.8-.21 1.05.12.26.32.21.8-.11 1.06Z" fill="#35AFF4"/>
</svg><svg fill="none" viewBox="0 0 24 24" id="map" xmlns="http://www.w3.org/2000/svg">
    <path d="M7.63 3.57c.18-.098.37.053.37.257v13.556c0 .223-.152.412-.35.516a1.394 1.394 0 0 0-.02.011l-2.35 1.34c-1.64.94-2.99.16-2.99-1.74V7.78c0-.63.45-1.41 1.01-1.73l4.33-2.48ZM14.722 6.102A.5.5 0 0 1 15 6.55v13.153a.5.5 0 0 1-.717.45l-4.25-2.047a.5.5 0 0 1-.283-.45V4.446a.5.5 0 0 1 .722-.448l4.25 2.104ZM22 6.49v9.73c0 .63-.45 1.41-1.01 1.73l-3.491 2.001a.5.5 0 0 1-.749-.434V6.33a.5.5 0 0 1 .252-.434L19.01 4.75C20.65 3.81 22 4.59 22 6.49Z" fill="#35AFF4"/>
</svg><svg fill="none" viewBox="0 0 237 274" id="marker" xmlns="http://www.w3.org/2000/svg">
    <path d="M233.333 89.333C219.333 27.733 165.6 0 118.4 0h-.134C71.2 0 17.333 27.6 3.333 89.2-12.267 158 29.866 216.267 68 252.933c14.133 13.6 32.266 20.4 50.4 20.4 18.133 0 36.266-6.8 50.266-20.4 38.134-36.666 80.267-94.8 64.667-163.6Zm-114.933 66.8c-23.2 0-42-18.8-42-42s18.8-42 42-42 42 18.8 42 42-18.8 42-42 42Z" fill="#fff" fill-opacity=".8"/>
</svg><svg fill="none" viewBox="0 0 24 24" id="search" xmlns="http://www.w3.org/2000/svg">
    <path d="M18.5 18.5 22 22m-1-10.5a9.5 9.5 0 1 0-19 0 9.5 9.5 0 0 0 19 0Z" stroke="#141718" stroke-width="1.5" stroke-linecap="round" stroke-linejoin="round"/>
</svg><svg fill="none" viewBox="0 0 24 24" id="search(1)" xmlns="http://www.w3.org/2000/svg">
    <path d="M11.5 21.75c-5.65 0-10.25-4.6-10.25-10.25S5.85 1.25 11.5 1.25s10.25 4.6 10.25 10.25-4.6 10.25-10.25 10.25Zm0-19c-4.83 0-8.75 3.93-8.75 8.75s3.92 8.75 8.75 8.75 8.75-3.93 8.75-8.75-3.92-8.75-8.75-8.75ZM22 22.75c-.19 0-.38-.07-.53-.22l-2-2a.754.754 0 0 1 0-1.06c.29-.29.77-.29 1.06 0l2 2c.29.29.29.77 0 1.06-.15.15-.34.22-.53.22Z" fill="#fff"/>
</svg><svg fill="none" viewBox="0 0 24 24" id="search-line" xmlns="http://www.w3.org/2000/svg">
    <path d="m18.031 16.617 4.283 4.282-1.415 1.415-4.282-4.283A8.96 8.96 0 0 1 11 20c-4.968 0-9-4.032-9-9s4.032-9 9-9 9 4.032 9 9a8.96 8.96 0 0 1-1.969 5.617Zm-2.006-.742A6.977 6.977 0 0 0 18 11c0-3.867-3.133-7-7-7s-7 3.133-7 7 3.133 7 7 7a6.977 6.977 0 0 0 4.875-1.975l.15-.15Z" fill="#000"/>
</svg><svg fill="none" viewBox="0 0 17 16" id="star" xmlns="http://www.w3.org/2000/svg">
    <path d="M7.684.519c.29-.692 1.282-.692 1.574 0L10.976 4.6c.123.291.4.49.719.516l4.46.353c.756.06 1.063.991.487 1.479l-3.398 2.876a.836.836 0 0 0-.275.835l1.038 4.3c.176.728-.626 1.304-1.273.914l-3.82-2.305a.861.861 0 0 0-.888 0l-3.819 2.305c-.647.39-1.449-.186-1.273-.914l1.038-4.3a.836.836 0 0 0-.274-.835L.299 6.949c-.576-.488-.27-1.42.486-1.48l4.461-.352a.852.852 0 0 0 .719-.516L7.684.519Z" fill="#F9B811"/>
</svg><svg viewBox="0 0 268 24" id="underline" xmlns="http://www.w3.org/2000/svg">
    <path fill-rule="evenodd" clip-rule="evenodd" d="M267.463 7.633c-1.092-2.83-10.474-4.02-38.668-5.013-26.307-.943-56.933-3.673-110.442-2.184-40.9 1.141-91.828 5.708-91.828 8.24 0 1.836 1.985 1.886 20.947.248 17.521-1.49 26.506-1.837 37.475-2.234-43.978 3.872-53.36 6.403-76.788 8.835-14.693 1.539-6.105 5.957-.745 5.51.05 0 68.4-5.56 74.853-5.262.596.05-5.907.944-14.494 1.986-23.975 2.978-19.358 7.942-1.39 5.659 60.458-7.694 117.342-10.077 161.171-6.751 13.849 1.042 15.388 1.042 15.388-.248 0-2.284-3.773-4.02-9.679-4.368-9.233-.596-44.773-2.284-60.855-2.78-1.241-.05-.646-.993.446-1.092 6.553-.645 58.572-.149 79.023.546 15.04.496 16.132.447 15.586-1.092Z" fill="#35AFF4"/>
</svg><svg fill="none" viewBox="0 0 24 24" id="user" xmlns="http://www.w3.org/2000/svg">
    <path d="M18.559 19.549a7.003 7.003 0 0 0-13.118 0m13.118 0A9.976 9.976 0 0 0 22 12c0-5.523-4.477-10-10-10S2 6.477 2 12a9.977 9.977 0 0 0 3.441 7.549m13.118 0A9.961 9.961 0 0 1 12 22a9.961 9.961 0 0 1-6.559-2.451M15 9a3 3 0 1 1-6 0 3 3 0 0 1 6 0Z" stroke="#141718" stroke-width="1.5" stroke-linejoin="round"/>
</svg><svg fill="none" viewBox="0 0 24 24" id="user-star-line" xmlns="http://www.w3.org/2000/svg">
    <path d="M12 14v2a6 6 0 0 0-6 6H4a8 8 0 0 1 8-8Zm0-1c-3.315 0-6-2.685-6-6s2.685-6 6-6 6 2.685 6 6-2.685 6-6 6Zm0-2c2.21 0 4-1.79 4-4s-1.79-4-4-4-4 1.79-4 4 1.79 4 4 4Zm6 10.5-2.939 1.545.561-3.273-2.377-2.317 3.286-.477L18 14l1.47 2.977 3.285.478-2.377 2.318.56 3.272L18 21.5Z" fill="#000"/>
</svg><svg viewBox="0 0 497 497" id="website" xmlns="http://www.w3.org/2000/svg">
    <path d="M497 128.5v312c0 11.046-8.954 20-20 20H20c-11.046 0-20-8.954-20-20v-312z" fill="#faf8f8"/>
    <path d="M290.498 294.5c0-23.196-18.804-42-42-42a41.823 41.823 0 0 0-19.482 4.782c-13.386 7.021-19.327 21.053-19.327 37.218 0 23.196 15.613 36.457 38.809 36.457 16.214 0 30.282-3.645 37.282-17.099a41.814 41.814 0 0 0 4.718-19.358z" fill="#dc4955"/>
    <path d="M286.468 312.47c-6.73 14.21-21.2 24.03-37.97 24.03-23.2 0-42-18.8-42-42 0-16.77 9.82-31.24 24.03-37.97-2.59 5.45-4.03 11.54-4.03 17.97 0 23.2 18.8 42 42 42 6.43 0 12.52-1.44 17.97-4.03z" fill="#d82f3c"/>
    <path d="M429.496 294.5c0-23.196-18.804-42-42-42a41.823 41.823 0 0 0-19.482 4.782c-13.386 7.021-19.327 21.053-19.327 37.218 0 23.196 15.613 36.457 38.809 36.457 16.214 0 30.282-3.645 37.282-17.099a41.814 41.814 0 0 0 4.718-19.358z" fill="#b7e546"/>
    <path d="M425.466 312.47c-6.73 14.21-21.2 24.03-37.97 24.03-23.2 0-42-18.8-42-42 0-16.77 9.82-31.24 24.03-37.97-2.59 5.45-4.03 11.54-4.03 17.97 0 23.2 18.8 42 42 42 6.43 0 12.52-1.44 17.97-4.03z" fill="#abd641"/>
    <path d="M497 148.5v-20l-276.011-12.798L0 128.5v312c0 11.046 8.954 20 20 20h15c-8.28 0-15-6.72-15-15v-291a6 6 0 0 1 6-6z" fill="#f0e9e6"/>
    <path d="M497 56.5V129H0V56.5c0-11.046 8.954-20 20-20h457c11.046 0 20 8.954 20 20z" fill="#5d748a"/>
    <g fill="#3f597d">
        <path d="M227.758 108.5c-8.255 0-14.947-6.716-14.947-15s6.692-15 14.947-15h208.315c8.255 0 14.947 6.716 14.947 15s-6.692 15-14.947 15z"/>
        <ellipse cx="160.869" cy="93.5" rx="14.947" ry="15"/>
        <path d="m171.361 104.184 12.874-12.869-13.139 1.179zM150.592 82.608l12.562-12.516-2.693 10.408z"/>
        <ellipse cx="98.034" cy="93.5" rx="14.947" ry="15"/>
        <path d="m108.553 104.157 12.382-12.499-12.674.836zM87.757 82.608l12.371-12.459L97.626 80.5z"/>
        <ellipse cx="32.947" cy="93.5" rx="14.947" ry="15"/>
        <path d="M43.769 103.846 56.49 90.66l-13.139 1.381zM22.67 82.608 34.292 70.57l-1.753 9.93z"/>
    </g>
    <ellipse cx="173.849" cy="80.5" fill="#b7e546" rx="14.947" ry="15"/>
    <path d="m217.514 82.577 12.971-12.991-3.025 14.276zM446.83 103.915l13.149-13.179-10.185 3.381z" fill="#3f597d"/>
    <ellipse cx="110.946" cy="80.5" fill="#ffbf54" rx="14.947" ry="15"/>
    <ellipse cx="45.495" cy="80.5" fill="#dc4955" rx="14.947" ry="15"/>
    <path d="M240.737 95.5c-8.255 0-14.947-6.716-14.947-15s6.692-15 14.947-15h208.315c8.255 0 14.947 6.716 14.947 15s-6.692 15-14.947 15z" fill="#faf8f8"/>
    <path d="m135.893 215 226.628 2c5.523 0 10-4.477 10-10l3.479-7v-30c0-5.523-4.477-10-10-10H142l-6.107 5c-5.523 0-10 4.477-10 10v30c0 5.523 4.477 10 10 10z" fill="#aad8de"/>
    <path d="M376 200v10c0 5.523-4.477 10-10 10H132c-5.523 0-10-4.477-10-10v-40c0-5.523 4.477-10 10-10h10v33a7 7 0 0 0 7 7z" fill="#94ccd4"/>
    <path d="M151.5 294.5c0-23.196-18.804-42-42-42a41.823 41.823 0 0 0-19.482 4.782c-13.386 7.021-19.327 21.053-19.327 37.218 0 23.196 15.613 36.457 38.809 36.457 16.214 0 30.282-3.645 37.282-17.099A41.814 41.814 0 0 0 151.5 294.5z" fill="#ffbf54"/>
    <path d="M147.47 312.47c-6.73 14.21-21.2 24.03-37.97 24.03-23.2 0-42-18.8-42-42 0-16.77 9.82-31.24 24.03-37.97-2.59 5.45-4.03 11.54-4.03 17.97 0 23.2 18.8 42 42 42 6.43 0 12.52-1.44 17.97-4.03z" fill="#ffa442"/>
    <path d="M149.5 374h-70a7.5 7.5 0 0 1 0-15h70a7.5 7.5 0 0 1 0 15zM149.5 404h-80a7.5 7.5 0 0 1 0-15h80a7.5 7.5 0 0 1 0 15zM149.5 434h-80a7.5 7.5 0 0 1 0-15h80a7.5 7.5 0 0 1 0 15zM288.5 374h-70a7.5 7.5 0 0 1 0-15h70c4.143 0 7.5 3.358 7.5 7.5s-3.357 7.5-7.5 7.5zM288.5 404h-80a7.5 7.5 0 0 1 0-15h80c4.143 0 7.5 3.358 7.5 7.5s-3.357 7.5-7.5 7.5zM288.5 434h-80a7.5 7.5 0 0 1 0-15h80c4.143 0 7.5 3.358 7.5 7.5s-3.357 7.5-7.5 7.5zM427.5 374h-70c-4.143 0-7.5-3.358-7.5-7.5s3.357-7.5 7.5-7.5h70c4.143 0 7.5 3.358 7.5 7.5s-3.357 7.5-7.5 7.5zM427.5 404h-80c-4.143 0-7.5-3.358-7.5-7.5s3.357-7.5 7.5-7.5h80c4.143 0 7.5 3.358 7.5 7.5s-3.357 7.5-7.5 7.5zM427.5 434h-80c-4.143 0-7.5-3.358-7.5-7.5s3.357-7.5 7.5-7.5h80c4.143 0 7.5 3.358 7.5 7.5s-3.357 7.5-7.5 7.5z" fill="#f0e9e6"/>
</svg></svg>